<?xml version="1.0" standalone="no"?>
<!DOCTYPE svg PUBLIC "-//W3C//DTD SVG 20010904//EN"
 "http://www.w3.org/TR/2001/REC-SVG-20010904/DTD/svg10.dtd">
<svg version="1.0" xmlns="http://www.w3.org/2000/svg"
 width="447.000000pt" height="559.000000pt" viewBox="0 0 447.000000 559.000000"
 preserveAspectRatio="xMidYMid meet">

<g transform="translate(0.000000,559.000000) scale(0.100000,-0.100000)"
fill="#000000" stroke="none">
<path d="M220 4562 c0 -56 -3 -101 -7 -101 -17 3 -46 -1 -42 -6 8 -8 107 -20
364 -45 110 -10 313 -31 450 -45 138 -14 426 -43 640 -65 215 -22 525 -53 690
-70 165 -17 404 -41 530 -54 127 -13 242 -29 256 -34 24 -10 26 -9 22 9 -3 11
-10 22 -16 26 -5 3 -7 2 -4 -4 6 -10 -7 -10 -58 0 -11 2 -22 12 -25 23 -6 23
-78 34 -90 14 -6 -10 -35 -10 -131 0 -68 7 -129 17 -135 22 -7 5 -48 10 -92
11 -44 1 -75 5 -70 8 14 9 -193 22 -244 15 -33 -4 -37 -3 -18 4 17 6 3 8 -46
4 -40 -3 -74 -2 -77 3 -3 5 11 7 31 5 20 -3 34 -1 31 2 -4 4 -24 9 -45 12 -22
2 -48 6 -59 9 -40 9 -171 14 -145 5 l25 -8 -24 -1 c-13 -1 -29 5 -35 13 -6 8
-24 16 -41 19 -16 2 -24 2 -17 0 6 -3 12 -9 12 -14 0 -5 -17 -6 -42 -2 -24 5
-66 8 -95 7 -29 0 -50 3 -48 7 7 10 -52 29 -84 28 -22 0 -20 -3 14 -14 l40
-14 -35 3 c-19 2 -80 13 -135 24 -117 24 -214 37 -175 22 17 -6 5 -7 -40 -3
-36 3 -72 7 -80 9 -8 1 -19 3 -25 4 -5 1 1 6 15 10 24 8 23 8 -7 9 -18 1 -33
-3 -33 -9 0 -5 -10 -10 -22 -9 -22 0 -22 1 -3 8 13 6 -17 11 -85 16 -58 4
-123 14 -145 21 -22 8 -69 16 -105 19 l-65 4 55 -9 c30 -5 66 -13 80 -19 20
-8 10 -10 -47 -8 -40 1 -73 6 -73 11 0 4 -28 5 -62 2 -46 -5 -59 -3 -48 4 11
8 -5 10 -57 7 -66 -3 -93 4 -60 16 6 2 -6 5 -27 5 -26 0 -34 -3 -25 -9 11 -7
8 -9 -8 -9 -13 0 -23 5 -23 10 0 6 -7 10 -15 10 -8 0 -15 -6 -15 -12 0 -10 -2
-10 -9 0 -5 9 -24 12 -59 9 -55 -4 -82 9 -60 31 9 9 9 12 -1 12 -9 0 -11 20
-10 70 1 39 -1 73 -4 77 -4 3 -7 -39 -7 -95z m665 -160 c-3 -3 -11 0 -18 7 -9
10 -8 11 6 5 10 -3 15 -9 12 -12z m42 2 c-3 -3 -12 -4 -19 -1 -8 3 -5 6 6 6
11 1 17 -2 13 -5z m50 0 c-3 -3 -12 -4 -19 -1 -8 3 -5 6 6 6 11 1 17 -2 13 -5z
m1016 -111 c-7 -2 -19 -2 -25 0 -7 3 -2 5 12 5 14 0 19 -2 13 -5z m100 -10
c-7 -2 -19 -2 -25 0 -7 3 -2 5 12 5 14 0 19 -2 13 -5z"/>
<path d="M1613 4513 c9 -2 23 -2 30 0 6 3 -1 5 -18 5 -16 0 -22 -2 -12 -5z"/>
<path d="M1728 4503 c7 -3 16 -2 19 1 4 3 -2 6 -13 5 -11 0 -14 -3 -6 -6z"/>
<path d="M1828 4493 c7 -3 16 -2 19 1 4 3 -2 6 -13 5 -11 0 -14 -3 -6 -6z"/>
<path d="M1248 4483 c7 -3 16 -2 19 1 4 3 -2 6 -13 5 -11 0 -14 -3 -6 -6z"/>
<path d="M1378 4473 c18 -2 45 -2 60 0 15 2 0 4 -33 4 -33 0 -45 -2 -27 -4z"/>
<path d="M508 4463 c6 -2 18 -2 25 0 6 3 1 5 -13 5 -14 0 -19 -2 -12 -5z"/>
<path d="M1108 4423 c6 -2 18 -2 25 0 6 3 1 5 -13 5 -14 0 -19 -2 -12 -5z"/>
<path d="M2578 4413 c7 -3 16 -2 19 1 4 3 -2 6 -13 5 -11 0 -14 -3 -6 -6z"/>
<path d="M1408 4403 c6 -2 18 -2 25 0 6 3 1 5 -13 5 -14 0 -19 -2 -12 -5z"/>
<path d="M1203 4393 c9 -2 23 -2 30 0 6 3 -1 5 -18 5 -16 0 -22 -2 -12 -5z"/>
<path d="M1408 4383 c7 -3 16 -2 19 1 4 3 -2 6 -13 5 -11 0 -14 -3 -6 -6z"/>
<path d="M1440 4381 c0 -6 8 -10 18 -10 9 0 33 -3 52 -6 30 -4 29 -3 -10 10
-53 17 -60 18 -60 6z"/>
<path d="M1798 4383 c7 -3 16 -2 19 1 4 3 -2 6 -13 5 -11 0 -14 -3 -6 -6z"/>
<path d="M1623 4373 c9 -2 25 -2 35 0 9 3 1 5 -18 5 -19 0 -27 -2 -17 -5z"/>
<path d="M1886 4359 c3 -5 24 -9 46 -9 23 0 39 2 37 4 -9 8 -88 13 -83 5z"/>
<path d="M1760 4346 c0 -2 11 -6 25 -8 13 -3 22 -1 19 3 -5 9 -44 13 -44 5z"/>
<path d="M2005 4340 c3 -5 24 -10 45 -10 21 0 49 -4 63 -9 13 -5 29 -6 36 -2
7 5 -18 13 -58 19 -85 15 -94 15 -86 2z"/>
<path d="M2260 4346 c0 -2 11 -6 25 -8 13 -3 22 -1 19 3 -5 9 -44 13 -44 5z"/>
<path d="M2320 4338 c0 -11 42 -10 60 2 10 6 3 8 -23 7 -20 -1 -37 -5 -37 -9z"/>
<path d="M2488 4333 c6 -2 18 -2 25 0 6 3 1 5 -13 5 -14 0 -19 -2 -12 -5z"/>
<path d="M2173 4314 c13 -14 156 -30 212 -24 47 5 46 6 -35 13 -47 4 -107 10
-135 13 -28 4 -46 2 -42 -2z"/>
<path d="M2496 4288 c3 -4 20 -8 38 -8 17 0 37 -5 42 -10 6 -6 30 -12 55 -14
76 -7 76 -7 54 -16 -14 -5 -6 -7 25 -5 25 2 51 -2 59 -8 12 -10 13 -9 6 3 -7
12 -6 13 6 4 20 -16 125 -28 133 -15 4 6 -10 13 -31 16 -21 3 -59 11 -84 16
-26 6 -53 9 -60 8 -8 -1 -26 1 -40 5 -15 4 -44 9 -65 12 -22 2 -62 7 -91 12
-29 5 -50 5 -47 0z"/>
<path d="M2428 4273 c7 -3 16 -2 19 1 4 3 -2 6 -13 5 -11 0 -14 -3 -6 -6z"/>
<path d="M2528 4263 c7 -3 16 -2 19 1 4 3 -2 6 -13 5 -11 0 -14 -3 -6 -6z"/>
<path d="M3135 3555 c0 -214 1 -301 2 -192 2 109 2 285 0 390 -1 106 -2 17 -2
-198z"/>
<path d="M3134 2805 c0 -176 2 -247 3 -157 2 90 2 234 0 320 -1 86 -3 13 -3
-163z"/>
<path d="M218 2698 c-2 -40 -6 -80 -8 -88 -4 -11 8 -16 50 -22 61 -9 609 -76
1485 -183 204 -24 420 -51 480 -59 61 -8 191 -25 290 -36 99 -12 267 -33 374
-46 107 -13 197 -22 200 -18 3 3 -2 11 -12 18 -9 7 -17 19 -18 27 0 8 -4 5 -9
-6 -6 -13 -9 -15 -9 -5 -1 13 -2 13 -11 0 -7 -11 -10 -3 -11 30 -1 27 -3 35
-6 20 -3 -14 -8 -29 -13 -34 -10 -11 -72 3 -65 15 3 4 -23 8 -57 7 -60 -1
-133 8 -152 19 -5 3 -38 10 -75 14 -36 5 -72 10 -79 11 -7 1 -11 7 -8 14 3 7
0 11 -7 9 -33 -10 -101 -15 -88 -6 10 6 0 8 -29 4 -29 -4 -41 -3 -37 4 7 11
-22 28 -31 18 -3 -3 0 -5 6 -5 7 0 12 -3 12 -7 0 -5 -22 -8 -49 -8 -27 0 -47
3 -44 8 2 4 -15 8 -39 8 -24 1 -59 4 -78 6 -19 3 -47 6 -62 7 -14 0 -24 4 -22
8 3 4 -1 5 -9 2 -8 -3 -18 -1 -21 5 -4 6 -20 8 -38 4 -22 -4 -33 -2 -40 10 -5
10 -16 17 -25 17 -14 0 -14 -2 3 -15 17 -13 16 -14 -21 -8 -22 3 -52 11 -67
18 -16 8 -28 9 -28 4 0 -6 -15 -8 -36 -4 -20 3 -68 8 -107 11 -66 6 -117 18
-117 28 0 2 10 2 23 0 20 -4 20 -4 2 4 -12 6 -27 5 -37 -1 -11 -8 -57 -7 -151
2 -75 7 -141 10 -148 5 -7 -4 -10 -3 -6 3 8 13 -104 31 -175 29 -25 0 -44 2
-41 7 2 4 -11 7 -29 6 -18 0 -69 4 -113 10 -44 6 -113 14 -152 17 -40 4 -73
10 -73 14 0 4 -17 4 -38 0 -54 -10 -128 2 -124 20 2 10 0 11 -10 3 -18 -15
-261 -3 -277 13 -2 2 -5 36 -5 74 -1 38 -4 70 -8 70 -3 0 -8 -33 -10 -72z
m459 -124 c-3 -3 -12 -4 -19 -1 -8 3 -5 6 6 6 11 1 17 -2 13 -5z"/>
<path d="M160 2610 c-13 -8 -12 -10 3 -10 9 0 17 5 17 10 0 12 -1 12 -20 0z"/>
<path d="M743 2603 c9 -2 23 -2 30 0 6 3 -1 5 -18 5 -16 0 -22 -2 -12 -5z"/>
<path d="M1468 2583 c7 -3 16 -2 19 1 4 3 -2 6 -13 5 -11 0 -14 -3 -6 -6z"/>
<path d="M1708 2583 c7 -3 16 -2 19 1 4 3 -2 6 -13 5 -11 0 -14 -3 -6 -6z"/>
<path d="M1648 2563 c7 -3 16 -2 19 1 4 3 -2 6 -13 5 -11 0 -14 -3 -6 -6z"/>
<path d="M1228 2543 c7 -3 16 -2 19 1 4 3 -2 6 -13 5 -11 0 -14 -3 -6 -6z"/>
<path d="M1438 2543 c6 -2 18 -2 25 0 6 3 1 5 -13 5 -14 0 -19 -2 -12 -5z"/>
<path d="M1487 2509 c7 -7 15 -10 18 -7 3 3 -2 9 -12 12 -14 6 -15 5 -6 -5z"/>
<path d="M1828 2493 c6 -2 18 -2 25 0 6 3 1 5 -13 5 -14 0 -19 -2 -12 -5z"/>
<path d="M2048 2493 c7 -3 16 -2 19 1 4 3 -2 6 -13 5 -11 0 -14 -3 -6 -6z"/>
<path d="M2453 2493 c9 -2 23 -2 30 0 6 3 -1 5 -18 5 -16 0 -22 -2 -12 -5z"/>
<path d="M1918 2483 c6 -2 18 -2 25 0 6 3 1 5 -13 5 -14 0 -19 -2 -12 -5z"/>
<path d="M2528 2483 c6 -2 18 -2 25 0 6 3 1 5 -13 5 -14 0 -19 -2 -12 -5z"/>
<path d="M2628 2473 c6 -2 18 -2 25 0 6 3 1 5 -13 5 -14 0 -19 -2 -12 -5z"/>
<path d="M2793 2453 c9 -2 23 -2 30 0 6 3 -1 5 -18 5 -16 0 -22 -2 -12 -5z"/>
<path d="M2008 2443 c7 -3 16 -2 19 1 4 3 -2 6 -13 5 -11 0 -14 -3 -6 -6z"/>
<path d="M2130 2433 c14 -3 32 -10 40 -16 13 -11 13 -10 1 6 -7 9 -25 16 -40
16 l-26 -2 25 -4z"/>
<path d="M2318 2433 c7 -3 16 -2 19 1 4 3 -2 6 -13 5 -11 0 -14 -3 -6 -6z"/>
<path d="M2268 2413 c12 -2 30 -2 40 0 9 3 -1 5 -23 4 -22 0 -30 -2 -17 -4z"/>
<path d="M2488 2413 c7 -3 16 -2 19 1 4 3 -2 6 -13 5 -11 0 -14 -3 -6 -6z"/>
<path d="M2598 2393 c6 -2 18 -2 25 0 6 3 1 5 -13 5 -14 0 -19 -2 -12 -5z"/>
<path d="M2738 2373 c7 -3 16 -2 19 1 4 3 -2 6 -13 5 -11 0 -14 -3 -6 -6z"/>
<path d="M2668 2363 c6 -2 18 -2 25 0 6 3 1 5 -13 5 -14 0 -19 -2 -12 -5z"/>
<path d="M2790 2366 c0 -2 9 -6 20 -9 11 -3 18 -1 14 4 -5 9 -34 13 -34 5z"/>
<path d="M2898 2343 c7 -3 16 -2 19 1 4 3 -2 6 -13 5 -11 0 -14 -3 -6 -6z"/>
<path d="M2828 2333 c6 -2 18 -2 25 0 6 3 1 5 -13 5 -14 0 -19 -2 -12 -5z"/>
<path d="M2977 2309 c7 -7 15 -10 18 -7 3 3 -2 9 -12 12 -14 6 -15 5 -6 -5z"/>
<path d="M3110 2245 c0 -8 4 -15 10 -15 5 0 7 7 4 15 -4 8 -8 15 -10 15 -2 0
-4 -7 -4 -15z"/>
<path d="M3133 2125 c0 -33 2 -45 4 -27 2 18 2 45 0 60 -2 15 -4 0 -4 -33z"/>
<path d="M3134 1720 c0 -190 2 -267 3 -172 2 94 2 250 0 345 -1 94 -3 17 -3
-173z"/>
<path d="M648 1693 c6 -2 18 -2 25 0 6 3 1 5 -13 5 -14 0 -19 -2 -12 -5z"/>
<path d="M728 1683 c7 -3 16 -2 19 1 4 3 -2 6 -13 5 -11 0 -14 -3 -6 -6z"/>
<path d="M3133 1270 c0 -47 2 -66 4 -42 2 23 2 61 0 85 -2 23 -4 4 -4 -43z"/>
<path d="M3134 880 c0 -168 2 -236 3 -152 2 83 2 221 0 305 -1 83 -3 15 -3
-153z"/>
<path d="M228 836 c3 -70 6 -86 19 -86 12 0 15 -9 11 -43 -3 -28 0 -50 8 -62
7 -10 12 -21 9 -24 -2 -4 -6 -26 -9 -50 -3 -34 -2 -41 10 -37 10 4 14 -2 14
-19 0 -29 6 -31 26 -10 9 8 12 15 7 15 -4 0 -9 16 -9 36 -1 28 2 34 14 29 12
-4 13 -3 2 10 -10 12 -9 15 6 15 12 0 15 3 7 8 -6 4 -14 19 -18 34 -5 19 -2
29 12 37 10 6 13 11 7 11 -12 0 -15 30 -2 30 4 0 7 6 5 13 -1 7 15 14 43 18
l45 6 -49 1 c-42 2 -47 4 -36 17 10 13 9 15 -11 16 -21 0 -19 2 9 13 34 12 34
26 -1 26 -15 0 -17 3 -8 13 6 8 23 13 38 12 16 -1 20 0 11 2 -10 2 -18 10 -18
17 0 8 -18 16 -42 20 -24 4 -56 9 -73 12 l-30 5 3 -85z m49 -88 c-3 -8 -6 -5
-6 6 -1 11 2 17 5 13 3 -3 4 -12 1 -19z m10 -180 c-3 -7 -5 -2 -5 12 0 14 2
19 5 13 2 -7 2 -19 0 -25z"/>
<path d="M453 753 c9 -2 25 -2 35 0 9 3 1 5 -18 5 -19 0 -27 -2 -17 -5z"/>
<path d="M698 723 c6 -2 18 -2 25 0 6 3 1 5 -13 5 -14 0 -19 -2 -12 -5z"/>
<path d="M778 713 c7 -3 16 -2 19 1 4 3 -2 6 -13 5 -11 0 -14 -3 -6 -6z"/>
<path d="M823 703 c9 -2 25 -2 35 0 9 3 1 5 -18 5 -19 0 -27 -2 -17 -5z"/>
<path d="M898 693 c12 -2 32 -2 45 0 12 2 2 4 -23 4 -25 0 -35 -2 -22 -4z"/>
<path d="M998 683 c12 -2 30 -2 40 0 9 3 -1 5 -23 4 -22 0 -30 -2 -17 -4z"/>
<path d="M1098 673 c6 -2 18 -2 25 0 6 3 1 5 -13 5 -14 0 -19 -2 -12 -5z"/>
<path d="M1183 663 c9 -2 23 -2 30 0 6 3 -1 5 -18 5 -16 0 -22 -2 -12 -5z"/>
<path d="M1328 643 c7 -3 16 -2 19 1 4 3 -2 6 -13 5 -11 0 -14 -3 -6 -6z"/>
<path d="M252 610 c0 -19 2 -27 5 -17 2 9 2 25 0 35 -3 9 -5 1 -5 -18z"/>
<path d="M1378 633 c6 -2 18 -2 25 0 6 3 1 5 -13 5 -14 0 -19 -2 -12 -5z"/>
<path d="M1428 623 c6 -2 18 -2 25 0 6 3 1 5 -13 5 -14 0 -19 -2 -12 -5z"/>
<path d="M1488 613 c6 -2 18 -2 25 0 6 3 1 5 -13 5 -14 0 -19 -2 -12 -5z"/>
<path d="M1968 543 c12 -2 30 -2 40 0 9 3 -1 5 -23 4 -22 0 -30 -2 -17 -4z"/>
<path d="M2818 543 c7 -3 16 -2 19 1 4 3 -2 6 -13 5 -11 0 -14 -3 -6 -6z"/>
<path d="M2048 533 c6 -2 18 -2 25 0 6 3 1 5 -13 5 -14 0 -19 -2 -12 -5z"/>
<path d="M2103 523 c9 -2 25 -2 35 0 9 3 1 5 -18 5 -19 0 -27 -2 -17 -5z"/>
<path d="M2183 513 c9 -2 25 -2 35 0 9 3 1 5 -18 5 -19 0 -27 -2 -17 -5z"/>
<path d="M2995 510 c-3 -6 1 -7 9 -4 18 7 21 14 7 14 -6 0 -13 -4 -16 -10z"/>
<path d="M2253 503 c9 -2 23 -2 30 0 6 3 -1 5 -18 5 -16 0 -22 -2 -12 -5z"/>
<path d="M2788 423 c7 -3 16 -2 19 1 4 3 -2 6 -13 5 -11 0 -14 -3 -6 -6z"/>
<path d="M2860 410 c8 -5 20 -10 25 -10 6 0 3 5 -5 10 -8 5 -19 10 -25 10 -5
0 -3 -5 5 -10z"/>
</g>
</svg>
