<?xml version="1.0" standalone="no"?>
<!DOCTYPE svg PUBLIC "-//W3C//DTD SVG 20010904//EN"
 "http://www.w3.org/TR/2001/REC-SVG-20010904/DTD/svg10.dtd">
<svg version="1.0" xmlns="http://www.w3.org/2000/svg"
 width="500.000000pt" height="499.000000pt" viewBox="0 0 500.000000 499.000000"
 preserveAspectRatio="xMidYMid meet">

<g transform="translate(0.000000,499.000000) scale(0.100000,-0.100000)"
fill="#000000" stroke="none">
<path d="M1450 4965 c-379 -67 -696 -235 -951 -503 -315 -331 -471 -722 -470
-1177 2 -728 458 -1362 1146 -1593 427 -144 853 -119 1260 73 131 61 253 138
349 218 l70 58 98 -98 98 -98 -129 -130 c-74 -74 -133 -141 -136 -156 -15 -60
76 -108 123 -66 10 10 21 17 23 17 3 0 338 -333 745 -741 406 -407 751 -747
767 -755 21 -11 32 -12 50 -3 33 17 487 470 498 497 6 15 5 31 -2 45 -6 12
-347 358 -757 769 l-745 746 22 27 c27 35 27 65 0 99 -14 18 -30 26 -51 26
-27 0 -51 -20 -164 -132 -120 -118 -135 -130 -151 -118 -25 19 -173 174 -173
181 0 3 23 35 52 70 185 230 310 503 359 787 36 210 25 493 -27 697 -107 419
-379 792 -745 1023 -152 96 -362 181 -554 223 -126 27 -483 36 -605 14z m485
-156 c792 -108 1377 -843 1307 -1642 -24 -272 -107 -508 -257 -732 -241 -360
-620 -599 -1052 -664 -101 -15 -352 -13 -453 3 -337 56 -616 200 -855 442
-409 414 -546 1012 -359 1574 103 309 327 597 609 784 310 206 677 287 1060
235z m2155 -3564 c388 -388 706 -708 708 -713 1 -4 -72 -81 -163 -172 l-165
-165 -712 713 -713 712 165 165 c91 91 167 165 170 165 3 0 322 -317 710 -705z"/>
<path d="M1490 4655 c-195 -34 -418 -128 -583 -246 -48 -34 -130 -106 -181
-160 -200 -208 -322 -452 -372 -746 -20 -118 -15 -379 11 -493 128 -578 581
-1001 1160 -1085 733 -106 1430 408 1551 1143 20 119 14 409 -10 515 -40 175
-116 347 -216 489 -63 91 -86 106 -135 94 -30 -8 -59 -59 -49 -89 4 -12 29
-55 57 -96 386 -573 236 -1327 -341 -1714 -300 -201 -704 -253 -1054 -137
-533 178 -884 715 -829 1272 15 156 51 282 120 423 110 224 265 393 486 528
197 120 488 184 725 158 236 -25 413 -93 614 -236 56 -40 83 -43 120 -14 20
16 26 29 26 58 0 44 -14 59 -115 124 -164 105 -358 182 -534 211 -113 19 -343
19 -451 1z"/>
</g>
</svg>
