<?xml version="1.0" standalone="no"?>
<!DOCTYPE svg PUBLIC "-//W3C//DTD SVG 20010904//EN"
 "http://www.w3.org/TR/2001/REC-SVG-20010904/DTD/svg10.dtd">
<svg version="1.0" xmlns="http://www.w3.org/2000/svg"
 width="319.000000pt" height="277.000000pt" viewBox="0 0 319.000000 277.000000"
 preserveAspectRatio="xMidYMid meet">

<g transform="translate(0.000000,277.000000) scale(0.100000,-0.100000)"
fill="#000000" stroke="none">
<path d="M0 1385 l0 -1385 1598 2 c878 2 1508 4 1400 5 l-196 3 -235 408
c-129 224 -247 430 -262 457 l-28 50 93 162 c51 90 96 163 100 163 4 0 159
-264 345 -587 186 -324 347 -601 357 -618 17 -29 18 13 18 1348 l0 1377 -1595
0 -1595 0 0 -1385z m1935 809 c176 -306 324 -564 328 -574 7 -13 -16 -59 -88
-184 l-97 -167 -17 28 c-9 15 -113 196 -231 401 -118 204 -217 372 -220 372
-10 0 -265 -452 -262 -463 2 -6 208 -366 458 -800 250 -433 454 -790 454 -793
0 -2 -285 -3 -632 -2 l-633 3 -95 165 -96 165 433 3 c238 1 433 6 433 10 0 4
-161 288 -359 631 l-359 623 185 322 c102 176 249 432 327 568 77 136 143 247
146 247 3 0 149 -250 325 -555z m-995 -1270 c0 -6 -117 -213 -259 -460 l-260
-449 -196 -3 c-108 -1 -194 1 -192 5 2 5 156 271 342 593 185 322 346 600 357
618 l20 33 94 -163 c52 -90 94 -168 94 -174z"/>
</g>
</svg>
