<?xml version="1.0" standalone="no"?>
<!DOCTYPE svg PUBLIC "-//W3C//DTD SVG 20010904//EN"
 "http://www.w3.org/TR/2001/REC-SVG-20010904/DTD/svg10.dtd">
<svg version="1.0" xmlns="http://www.w3.org/2000/svg"
 width="407.000000pt" height="613.000000pt" viewBox="0 0 407.000000 613.000000"
 preserveAspectRatio="xMidYMid meet">

<g transform="translate(0.000000,613.000000) scale(0.100000,-0.100000)"
fill="#000000" stroke="none">
<path d="M3378 6102 c-64 -39 -77 -153 -25 -230 73 -111 265 -107 296 5 30
108 -83 243 -204 243 -22 -1 -52 -8 -67 -18z m121 -67 c74 -38 106 -126 59
-159 -62 -44 -155 10 -165 95 -8 72 38 100 106 64z"/>
<path d="M2940 5160 c-19 -5 -49 -24 -67 -44 -29 -32 -33 -42 -33 -93 0 -104
70 -212 153 -234 72 -19 131 10 168 84 29 56 24 167 -9 215 -42 59 -137 91
-212 72z m128 -95 c35 -29 48 -87 32 -144 -12 -47 -32 -64 -71 -64 -77 0 -153
159 -102 215 25 28 104 25 141 -7z"/>
<path d="M3764 5131 c-63 -29 -114 -110 -114 -180 0 -72 49 -154 111 -187 68
-35 167 -8 228 62 39 44 51 73 51 126 0 81 -70 165 -155 187 -59 15 -73 14
-121 -8z m144 -78 c68 -43 78 -130 21 -189 -76 -78 -188 -41 -206 69 -16 101
97 175 185 120z"/>
<path d="M2517 4810 c-42 -26 -207 -298 -207 -342 0 -24 51 -80 94 -103 28
-15 35 -24 30 -40 -7 -21 -290 -511 -407 -705 -198 -324 -330 -466 -534 -569
-89 -44 -195 -77 -363 -111 -222 -45 -320 -92 -450 -217 -121 -115 -186 -222
-311 -514 -134 -314 -270 -694 -324 -909 -58 -228 -9 -423 146 -580 31 -31
145 -116 260 -193 166 -111 241 -154 404 -230 404 -189 473 -210 705 -211 157
-1 168 0 228 25 145 62 236 139 434 370 152 178 219 285 316 509 152 351 195
558 173 830 -13 156 -41 267 -124 490 -86 233 -101 300 -95 448 4 96 11 132
36 204 39 114 499 998 518 998 8 0 28 -7 44 -15 16 -9 49 -18 73 -21 39 -6 48
-3 80 26 36 31 155 216 177 275 29 77 -13 113 -435 377 -317 199 -413 241
-468 208z m136 -96 c80 -41 415 -246 562 -344 120 -81 139 -100 130 -131 -14
-43 -127 -220 -152 -236 -24 -16 -28 -15 -137 41 -62 31 -214 123 -338 204
-124 82 -248 163 -276 180 -34 21 -52 39 -52 51 0 11 3 22 8 24 4 3 52 -24
107 -59 104 -66 125 -73 144 -50 20 24 1 45 -100 107 -55 34 -101 65 -104 70
-9 13 14 49 30 49 8 0 96 -52 197 -116 100 -64 195 -122 210 -130 36 -19 60
-8 56 25 -3 22 -34 45 -208 154 -113 70 -206 132 -208 137 -5 15 29 60 45 60
9 0 47 -16 86 -36z m-6 -502 c65 -43 163 -107 218 -141 55 -35 102 -65 104
-67 2 -1 -39 -85 -92 -186 -52 -101 -169 -327 -260 -503 -100 -192 -173 -347
-184 -385 -11 -44 -17 -102 -17 -180 0 -118 9 -180 46 -308 12 -40 18 -75 15
-79 -4 -3 -42 0 -84 8 -115 21 -300 15 -498 -15 -304 -47 -387 -56 -519 -56
-295 0 -587 90 -729 224 l-28 26 33 46 c96 134 236 218 433 260 255 54 332 75
412 113 111 53 156 85 264 189 157 149 217 234 453 642 81 140 180 310 219
378 44 76 76 121 84 118 7 -3 65 -41 130 -84z m-1993 -1786 c88 -68 232 -137
351 -168 82 -21 110 -23 315 -22 199 0 251 4 455 33 346 49 547 52 706 11 43
-12 66 -49 102 -165 44 -140 60 -279 54 -465 -4 -134 -9 -183 -30 -260 -62
-228 -189 -517 -305 -691 -99 -147 -378 -443 -458 -486 -67 -36 -185 -63 -272
-63 l-60 0 -41 54 c-133 172 -388 366 -646 491 -185 90 -328 134 -564 173 -67
12 -117 25 -122 33 -19 31 -49 169 -49 225 0 105 79 374 208 709 98 256 267
645 280 645 3 0 37 -25 76 -54z m-262 -1656 c310 -78 623 -235 851 -428 73
-62 157 -154 157 -173 0 -8 -86 15 -195 54 -319 114 -748 355 -937 528 l-53
48 30 1 c17 0 82 -13 147 -30z"/>
<path d="M2396 3847 c-8 -7 -49 -79 -90 -162 -99 -200 -149 -282 -257 -425
-94 -125 -108 -162 -63 -168 17 -2 39 19 104 103 45 58 106 145 137 193 80
128 226 424 218 444 -9 23 -30 29 -49 15z"/>
<path d="M631 2260 c-111 -27 -147 -160 -67 -245 30 -32 39 -35 87 -35 93 0
150 54 151 144 2 100 -74 160 -171 136z m81 -87 c43 -38 9 -123 -49 -123 -34
0 -46 8 -62 37 -16 31 -14 47 10 77 24 31 72 35 101 9z"/>
<path d="M1932 2170 c-35 -5 -136 -23 -225 -40 -280 -53 -326 -54 -499 -17
-77 17 -106 7 -94 -31 5 -15 20 -24 59 -32 202 -41 346 -42 507 -1 144 37 269
53 385 49 50 -1 96 1 103 5 18 12 14 45 -8 57 -27 15 -154 20 -228 10z"/>
<path d="M2119 1917 c-41 -27 -61 -77 -52 -132 12 -86 59 -135 128 -135 135 0
173 197 53 270 -43 26 -87 25 -129 -3z m106 -72 c29 -28 32 -70 9 -103 -33
-48 -94 -12 -94 56 0 71 40 93 85 47z"/>
<path d="M1133 1803 c-12 -2 -34 -18 -48 -34 -47 -57 -28 -163 35 -189 41 -17
106 -7 136 21 91 86 5 227 -123 202z m75 -85 c7 -7 12 -21 12 -33 0 -12 -5
-26 -12 -33 -7 -7 -21 -12 -33 -12 -12 0 -26 5 -33 12 -13 13 -16 60 -5 71 11
11 58 8 71 -5z"/>
<path d="M1555 1696 c-27 -20 -15 -51 20 -51 23 0 31 5 33 22 4 29 -28 47 -53
29z"/>
<path d="M2424 1576 c-10 -25 0 -51 20 -54 27 -6 48 25 35 49 -12 22 -47 25
-55 5z"/>
<path d="M511 1516 c-19 -23 -4 -56 25 -56 28 0 42 25 27 49 -14 22 -37 25
-52 7z"/>
<path d="M1297 1314 c-13 -14 -7 -43 12 -53 24 -13 55 8 50 35 -4 19 -48 32
-62 18z"/>
<path d="M1824 1295 c-10 -25 4 -45 30 -45 25 0 39 20 30 45 -4 8 -17 15 -30
15 -14 0 -27 -7 -30 -15z"/>
<path d="M312 1261 c-8 -4 -12 -19 -10 -32 4 -29 45 -34 61 -7 19 30 -19 60
-51 39z"/>
<path d="M610 1165 c-19 -23 -8 -50 22 -53 19 -2 28 2 33 18 12 39 -29 66 -55
35z"/>
<path d="M1524 1036 c-17 -8 -41 -27 -53 -42 -20 -25 -22 -38 -19 -88 4 -53 8
-63 41 -92 53 -49 119 -44 179 13 76 73 21 224 -80 223 -20 -1 -51 -7 -68 -14z
m103 -93 c18 -44 10 -61 -35 -80 -29 -12 -34 -11 -53 8 -28 28 -23 79 11 96
42 21 60 16 77 -24z"/>
<path d="M2023 984 c-8 -20 8 -48 30 -52 22 -5 42 35 26 54 -16 19 -48 18 -56
-2z"/>
<path d="M2196 984 c-22 -21 -3 -56 27 -52 37 5 33 67 -5 68 -4 0 -14 -7 -22
-16z"/>
<path d="M836 969 c-55 -43 -57 -124 -6 -179 48 -52 144 -38 175 25 8 18 15
43 15 54 0 34 -26 87 -51 105 -34 23 -100 21 -133 -5z m102 -61 c27 -27 7 -78
-30 -78 -27 0 -52 44 -38 69 12 23 49 28 68 9z"/>
<path d="M1615 489 c-10 -30 18 -58 43 -43 9 6 17 22 17 35 0 34 -50 41 -60 8z"/>
<path d="M750 3101 c-75 -24 -163 -72 -233 -127 -59 -46 -68 -67 -35 -87 13
-9 35 2 106 50 97 66 178 101 251 109 75 9 88 13 95 30 4 9 1 23 -5 30 -16 20
-111 17 -179 -5z"/>
<path d="M2883 2223 c-20 -7 -15 -45 12 -106 13 -31 30 -94 37 -141 6 -48 16
-86 20 -86 4 0 8 7 8 15 0 9 10 15 26 15 25 0 26 1 19 53 -15 123 -72 260
-105 256 -3 0 -11 -3 -17 -6z"/>
<path d="M2942 1793 c3 -62 5 -68 26 -71 17 -3 22 1 22 20 0 13 -7 32 -15 42
-8 11 -15 32 -15 48 0 15 -5 28 -10 28 -7 0 -10 -25 -8 -67z"/>
<path d="M3162 1558 c-23 -30 -53 -101 -50 -121 5 -36 44 -34 63 4 34 64 46
112 33 121 -19 11 -34 10 -46 -4z"/>
<path d="M2502 302 c-30 -54 -115 -131 -216 -197 -47 -31 -86 -62 -86 -69 0
-17 21 -36 40 -36 55 0 321 225 335 283 17 67 -38 81 -73 19z"/>
</g>
</svg>
